<svg width="85" height="33" fill="none" xmlns="http://www.w3.org/2000/svg"><path fill-rule="evenodd" clip-rule="evenodd" d="M84.7941 32.5816V0H0v32.5816h84.7941Z" fill="#000"/><path fill-rule="evenodd" clip-rule="evenodd" d="M56.5504 24.9826h5.7632l1.9632 5.3825 16.0842-5.7945V7.37761h-5.6989l-1.9628-5.38249-16.1489 5.79404V24.9826Z" fill="#fff"/><path fill-rule="evenodd" clip-rule="evenodd" d="M57.6587 23.811h9.6259v-8.3912l2.2473-.7912V8.45385h4.2116l-1.805-4.97094L57.6587 8.6121V23.811Z" fill="#1E71B8"/><path fill-rule="evenodd" clip-rule="evenodd" d="M79.1269 8.45386h-9.595v8.48574l-2.2474.8632v6.0082h-4.1801l1.8054 5.0337 14.2171-5.161V8.45386Z" fill="#CC2229"/><path fill-rule="evenodd" clip-rule="evenodd" d="M34.2915 27.8639V4.97143h-6.4913V27.8639h6.4913Zm9.1819 0v-9.4044h6.9347v-4.6544h-6.9347v-1.5753S43.0807 9.72043 46.5 9.72043h3.6543V4.97095h-6.3566s-6.4985.08443-6.4671 7.17445v15.7185h6.1428ZM14.5862 7.25112C7.11121 7.37753 4.32733 13.8041 4.32733 17.5944c0 4.1368 2.44856 10.5088 10.68107 10.5088 8.7815 0 9.7522-6.9631 9.7522-6.9631h-5.4881s-.7175 2.3642-4.2217 2.3642c-4.8131 0-4.7736-4.4431-4.7736-4.4431h14.8183c.7628-4.8866-2.7424-11.94179-10.5093-11.81008Zm-4.2246 8.16878s.5935-3.8231 4.6463-3.8231c3.715 0 4.2617 3.8231 4.2617 3.8231h-8.908Z" fill="#fff"/></svg>