<svg width="236" height="42" fill="none" xmlns="http://www.w3.org/2000/svg"><path d="M.52 21.232V.959998H49.8V21.232h-9.072V8.24H28.52V41h-8.96V8.24H9.592v12.992H.52ZM65.6887 41c-3.2853 0-5.6933-.8213-7.224-2.464-1.4933-1.6427-2.24-3.7707-2.24-6.384V12.16h8.12V31.2c0 2.24 1.12 3.36 3.36 3.36h11.648c2.24 0 3.36-1.12 3.36-3.36V12.16h8.12v19.992c0 2.6133-.7653 4.7413-2.296 6.384C87.0434 40.1787 84.654 41 81.3687 41h-15.68ZM98.66 41V.959998h9.072L136.068 29.744V.959998h8.96V41h-9.072L107.62 12.16V41h-8.96Zm69.259.28c-5.002 0-8.904-1.232-11.704-3.696-2.8-2.5013-4.2-6.16-4.2-10.976 0-4.8533 1.4-8.512 4.2-10.976 2.8-2.5013 6.702-3.752 11.704-3.752h14c3.286 0 5.787.784 7.504 2.352 1.755 1.5307 2.632 3.7333 2.632 6.608 0 5.8613-3.378 8.792-10.136 8.792h-21.168c.784 3.472 3.174 5.208 7.168 5.208h22.68v6.44h-22.68Zm0-22.96c-3.845 0-6.216 1.624-7.112 4.872h20.72c.747 0 1.326-.224 1.736-.672.448-.448.672-1.064.672-1.848 0-1.568-.802-2.352-2.408-2.352h-13.608Zm29.465 9.576v-6.44h17.136v6.44h-17.136ZM226.962 41V8.352H215.09v-7.28h20.552V41h-8.68Z" fill="#fff"/></svg>