<svg width="236" height="42" viewBox="0 0 236 42" fill="none" xmlns="http://www.w3.org/2000/svg">
<path d="M0.52 21.232V0.959998H49.8V21.232H40.728V8.24H28.52V41H19.56V8.24H9.592V21.232H0.52ZM65.6887 41C62.4034 41 59.9954 40.1787 58.4647 38.536C56.9714 36.8933 56.2247 34.7653 56.2247 32.152V12.16H64.3447V31.2C64.3447 33.44 65.4647 34.56 67.7047 34.56H79.3527C81.5927 34.56 82.7127 33.44 82.7127 31.2V12.16H90.8327V32.152C90.8327 34.7653 90.0674 36.8933 88.5367 38.536C87.0434 40.1787 84.654 41 81.3687 41H65.6887ZM98.66 41V0.959998H107.732L136.068 29.744V0.959998H145.028V41H135.956L107.62 12.16V41H98.66ZM167.919 41.28C162.917 41.28 159.015 40.048 156.215 37.584C153.415 35.0827 152.015 31.424 152.015 26.608C152.015 21.7547 153.415 18.096 156.215 15.632C159.015 13.1307 162.917 11.88 167.919 11.88H181.919C185.205 11.88 187.706 12.664 189.423 14.232C191.178 15.7627 192.055 17.9653 192.055 20.84C192.055 26.7013 188.677 29.632 181.919 29.632H160.751C161.535 33.104 163.925 34.84 167.919 34.84H190.599V41.28H167.919ZM167.919 18.32C164.074 18.32 161.703 19.944 160.807 23.192H181.527C182.274 23.192 182.853 22.968 183.263 22.52C183.711 22.072 183.935 21.456 183.935 20.672C183.935 19.104 183.133 18.32 181.527 18.32H167.919ZM197.384 27.896V21.456H214.52V27.896H197.384ZM226.962 41V8.352H215.09V1.072H235.642V41H226.962Z" fill="black"/>
</svg>
