<svg width="183" height="61" fill="none" xmlns="http://www.w3.org/2000/svg"><path fill-rule="evenodd" clip-rule="evenodd" d="M8.07358 5.89941H174.926V53.2795H8.07358V5.89941Z" fill="#FFF22D"/><path fill-rule="evenodd" clip-rule="evenodd" d="M155.108 15.2451c3.72 0 5.368 3.4653 5.354 5.2795 0 1.6643-1.183 5.4296-5.383 5.4144l-116.457-.0313.0446 18.0269H24.554V15.2441h130.554v.001Zm-16.437 3.4795c.93 0 1.858.7804 1.858 1.6348 0 .8706-.944 1.8295-1.875 1.8295H38.6666l.0152-3.4785 99.9892.0142ZM76.1759 28.8023c2.9403 0 4.9938 2.0108 4.9938 5.459 0 1.9197-1.8285 3.884-3.1643 4.3197l3.7795 5.3536H71.7812l-2.4893-4.6036h-2.325l-.0152 4.6036H58.448l-.0294-15.1323h17.7573Zm-5.0099 3.4643c.9 0 1.6804.8108 1.6804 1.6643 0 1.05-.7804 1.6814-1.6804 1.6814h-4.2143v-3.3447h4.2143v-.001Zm33.43-3.4643-.03 3.4805-9.7773-.0162v2.3849l9.4623.0152v3.4795h-9.4623v2.3687h10.4083l-.015 3.4207H85.9242V28.8023h18.6718Zm14.054 0V40.514h8.442l-.015 3.4206h-17.096V28.8023h8.669Zm19.616 0V40.514h8.414v3.4206h-17.083V28.8023h8.669Zm-85.4867 0v15.1323h-8.4439V28.8023h8.4439Zm96.5837 0h8.445v15.1323h-8.445V28.8023Z" fill="#CC2229"/></svg>