<svg width="119" height="60" fill="none" xmlns="http://www.w3.org/2000/svg"><path d="M90.8777 11.6348h-5.3772v10.5954c0 3.4535 3.6739 6.4041 8.2161 6.4041 4.5422 0 8.5164-2.9841 8.5164-6.4041V11.6348h-5.3769v9.556c0 1.5758-1.336 2.85-2.9725 2.85-1.6699 0-3.0059-1.2742-3.0059-2.8836v-9.5224ZM5.57757 5.80063V27.7961H0V1.27413h10.053c4.3752 0 7.9489 3.55414 7.9489 7.87947 0 3.6883-2.5717 6.773-6.0452 7.5777l7.7485 11.0648h-6.6463l-5.5776-8.6842v-6.3371h1.30254c2.07076 0 3.74066-1.5424 3.74066-3.45355 0-1.91119-1.5697-3.52062-3.64046-3.52062H5.57757ZM56.9113 27.7961V0h-5.277v13.1101c-1.4027-1.3747-3.1729-2.1459-5.2102-2.1459-4.3418 0-7.8821 3.8559-7.8821 8.6507 0 4.7612 3.5403 8.6506 7.8821 8.6506 2.0707 0 4.0079-.8047 5.2102-2.28v1.8106h5.277Zm-8.9842-4.0571c-2.1376 0-3.8743-1.9112-3.8743-4.2583 0-2.347 1.7367-4.2582 3.8743-4.2582 2.1375 0 3.8742 1.9112 3.8742 4.2582-.0334 2.3471-1.7701 4.2583-3.8742 4.2583ZM79.088 13.3783c1.4361-1.3411 2.3379-3.1517 2.3379-5.13 0-1.8106-.7014-3.45356-1.9037-4.76121-1.2692-1.37472-3.4735-2.21296-6.4794-2.21296h-8.9842V27.7961h11.6227c4.442-.0671 8.0491-3.4536 8.0491-7.6112-.0334-3.0177-1.1022-5.1636-4.6424-6.8066Zm-4.4754 9.8242h-5.0432V6.03534h3.5402c1.5364 0 2.8389 1.17354 2.8389 2.74943 0 1.57593-1.3025 2.85003-2.8389 2.85003h-1.8703v4.7947h3.4401c1.8703 0 3.273 1.5424 3.273 3.4201-.0668 1.8776-1.3025 3.2523-3.3398 3.3529Z" fill="#E21B4D"/><path d="M24.381 17.6366c0-1.7771 1.4361-3.2188 3.2062-3.2188 1.7702 0 3.2063 1.4417 3.2063 3.2188H24.381Zm11.6227 3.0177c.0334-.3688.0668-.7377.0668-1.1065.0668-5.7336-3.6739-8.8518-8.4833-8.8518s-8.717 3.9565-8.717 8.8518c0 4.8953 3.9076 8.8518 8.717 8.8518 3.6739 0 6.5462-1.6764 8.0157-4.2918l-4.275-1.9782c-.5344 1.1735-1.8036 2.0118-3.3065 2.0118-1.9705 0-3.607-1.5089-3.607-3.4871h11.5893ZM104.705 0h5.277v27.7961h-5.277V0Zm8.984 0h5.277v27.7961h-5.277V0Z" fill="#E21B4D"/><path d="M47.3592 46.1706c0-7.1754 5.778-12.976 12.9253-12.976s12.9252 5.8006 12.9252 12.976c0 7.1753-5.7779 12.9759-12.9252 12.9759s-12.9253-5.8341-12.9253-12.9759Z" fill="#FFD300"/><path fill-rule="evenodd" clip-rule="evenodd" d="M49.8975 38.4587c.2004.1006.4008.2011.6346.3353.9686.6706 1.6031 1.2406 3.0727 2.4812.4342.4358.9351 1.14 1.3025 1.5759.8016 1.0058 1.3694 1.71 1.4696 2.5482.2338 1.6765.4676 2.6153 1.1021 4.3253.0668.1677.334.4024.501.6036.4008.5029.5678 1.3076 1.3026 1.7435.4007.2347.4675.2682.6011.3688.2004.1677-.1336.7712-1.1689.6371.5344.2682.4676.8718-.3006.9053-1.503.0671-2.4381-.8047-2.6385-1.0394-.1002-.1006-.4008.3017-.9352.5029-.5343.2683-1.2691 0-1.8369.1006-.5344.1006-1.2357.4359-1.8035.4694-1.002.0336-1.1356-.6706-1.1356-1.2741v-.2682c-.1002.3688-.4676 1.0059-.4676 1.0059-.1335.3017-.3339.6706-.7013.8047l-1.0688.1341c-.835.3688-1.6699.6371-2.5383.9388-.501.1006-1.0687 0-1.4361-.3017-.3006-.2348-.4676-.5365-.6346-.8383-.167-.067-.4008 0-.6012-.067-.167-.0336-.2672-.1677-.3674-.2683l-.7347-1.2406c-.0668-.1676-.0668-.4023 0-.57.1336-.2682.4342-.4023.7347-.4023.5344-.0336 1.1356-.2012 1.67 0 .2338-.2683.6012-.2348.9351-.3018-.1336-.2012-.3339-.3018-.5009-.4694-.9686.2347-2.0374.067-2.9725-.1006-.8684-.2012-1.6032.3018-2.4715.1676l-.2672.57c-.4008.4359-.4342 1.1736-1.0354 1.4753-.4341.1006-.7681.4024-1.1355.6036-.668.3688-1.5698.2012-2.3045.067-.3006-.0335-.501 0-.7682.1006-.2338.1677-.501.4359-.7682.6371-.4341.1676-.8015.5365-1.2691.57-.2672 0-.5344-.1677-.8016-.1006-.334.3688-.501.9724-1.0353 1.14-.5344.1677-1.2024.0335-1.7368-.1006-.167.0671-.2672.2012-.4675.1677-.3674-.1006-.7348-.2012-1.0688-.4024-.1336-.1341-.167-.3017-.2004-.4359 0-.2347.2004-.4359.3006-.637.0334-.2347.0334-.57.1336-.8047.167-.3689.5344-.6036.9017-.7712.0334-.2683.2004-.503.4342-.6371.4342-.2347.9018-.7712 1.4696-.4694l.6011.5029c.5344-.2347.4008-.7711.668-1.207.1336-.3018.3006-.6371.6346-.6371.2338-.0335.501.0335.7348 0 .334-.1006.7013-.2347.9351-.5029l-.0334-.2012c-.334-.6371-.4342-1.4083-.4676-2.1794-.6011.067-1.2357.1676-1.8703.0335-.9351-.1341-1.8369-.8718-2.2043-1.8106-.4008-.9053-.2338-2.1794.4008-2.9506.501-.6036 1.0688-1.14 1.6699-1.6095-.2004-.067-.4342-.0335-.6345-.1005-.8684-.1342-1.7368-.9053-1.9372-1.7771-.1336-.57 0-1.1065.2672-1.5759.1002-.1006.2004-.2012.3674-.1341.4342.1676.5678.4023.9686.6035l.2338.1341c1.1021.3689 2.5717.3689 3.0058 1.7436.2672 1.0729-.4007 1.8776-1.1689 2.4812-.6012.4358-1.2024.9723-1.503 1.6094-.1336.4694-.0668.9388.334 1.2741.4008.4024 1.1022.4024 1.6032.2012.9351-.4024 1.8035-1.0059 2.6385-1.643.8015-.6035 1.7701-.8382 2.8054-.8717.4676-.1006.8684-.3018 1.2358-.6036.6346-.6035 1.3025-1.1064 2.1041-1.3076.3674-.0671.7348-.1006 1.1022-.1341.3006-.1342.5009-.503.7347-.6706 1.1022-.9724 2.5717-.9389 3.7407-1.71.668-.503 1.4027-.8383 2.2711-.8048.4008.0336.7682.1006 1.1021.2347l.2672.1342Zm1.1022 11.4001c-.7348.0335-1.2024.2011-1.7033.2682.0334.4694.3005.8718.6679 1.3747.2004-.7712.835-1.0729 1.0354-1.6429Zm18.8034.1676c.334.5029.5344 1.0059.835 1.5424.3006-.57.5678-1.1065.835-1.4418-.0334-.0335-.9018.0671-1.67-.1006Zm.7014 2.4812c-.0334.1006-.1002.1341-.2338.1341.1002.4694-.2338 1.3412-1.0688 1.3747-.5677.0336-1.5029-.5364-2.0373-.57-.5677-.0335-1.6031.4024-2.2043-.5029-.8015.9723-1.7367 1.2406-2.5383 1.2071-.4676 0-.9685-.2683-.2672-.8718-1.5363.5029-1.5363-.5365-1.2691-.7377.167-.1341.3674-.2347.9352-.8047 2.1375-2.2465 1.3359-6.1359 3.6738-8.7177.9018-1.0059 1.6365-1.5759 3.4735-2.8836.6345-.4358 1.2691-1.0729 1.8703-1.5088l.0334.0671v-.0336c.3674-.2682.7013-.5364 1.1021-.637.835-.1006 1.6032.1676 2.2377.6035.334.2347.6012.503.8684.8383.2004.2011.501.2011.7682.3017.7681.1341 1.4361.4359 2.0707.8383.4342.2682.8016.7376 1.3359.8047.6346.1006 1.2024.3017 1.7702.637.6679.4359 1.2691.9724 2.0707 1.1065 1.6031.1677 2.9391 1.073 4.2082 1.9783.7348.4359 1.6031.9388 2.5049.637.2672-.1006.4676-.3353.5344-.57.0668-.6035-.3006-1.0729-.668-1.5088-.7682-.9053-2.1041-1.6765-1.9371-2.9841.2338-.9724 1.3025-1.5424 2.1375-1.8106.4676-.1677 1.0354-.1006 1.4361-.503.2004-.1341.3006-.6035.6346-.4359.2672.1677.3006.503.334.8047.1336.9389-.0668 1.8777-.9352 2.4142-.4007.2682-.8349.3688-1.3025.4694.7014.57 1.4027 1.2741 1.8035 2.0788.2338.4694.3674.8718.4008 1.4083-.0334 1.0059-.6346 1.8776-1.5029 2.3806-.501.2682-1.0688.3688-1.67.3688-.2337 0-.4342-.0671-.6345-.0671.1002.4695.1002 1.1065 0 1.643-.0334.2682-.2004.57-.2004.9053.1336.1676.334.1676.501.1676.4341 0 .9685-.0335 1.2023.4359.2004.4359.3006.9389.4676 1.3748.0668.067.1002.2347.2004.2011.3006-.2682.6011-.637 1.0353-.5364.4008.2682.8016.57 1.2024.8717.1002.1006.1336.2347.167.4024.334.1341.7681.3688.8683.7712.0668.2682.0334.5364.1002.7711.1002.2683.3674.6036.167.9389l-.1336.1006-1.2691.4023c-.1002 0-.2004-.067-.3006-.1676-.668-.0336-1.4695.1676-2.0039-.3018-.2338-.2012-.4008-.4359-.5678-.7041-.4008.2012-.9686.3353-1.3693.067-.835-.637-1.67-1.2741-2.8055-1.2406-.501.1006-1.1022.2348-1.6032.0336-.4675-.3353-1.0019-.503-1.3693-1.0059-.5344-.57-.5344-1.2406-.7348-1.9447-.7347.1676-1.5363.067-2.2711.0335-.6012-.0335-1.1689.0671-1.7367.2012-.7014.1341-1.4696.2012-2.2043.1676l-.3674.2683c.167.0335.334.0335.4676.1676l.1336.1341c.6011.0671 1.3025-.0335 1.8703.1006.1336.0335.2672.1677.334.3018.0668.1676.0668.3688-.0334.5029-.3006.4024-.4676.8718-.8684 1.2071-.1002.1341-.4008-.0335-.4342.2012-.1336.6035-.7013 1.1065-1.2691 1.2406-.2338.0335-.501 0-.7014-.0671-.7014-.2347-1.4027-.4359-2.1041-.6371-.2338-.067-.4342-.3017-.6346-.4358-.3006 0-.7347.1005-.9351-.1677-.1002-.067-.2004-.3018-.2338-.4023-.2338-.3018-.4008-.8383-.501-1.3077Z" fill="#FFD300"/><path fill-rule="evenodd" clip-rule="evenodd" d="M49.5635 42.6833c.2004.503.2004 1.1736.0668 1.71-.0334.0336-.0668.0336-.1002 0-.1002-.4694-.2003-.9388-.3673-1.4082-.1002-.2682-.4342-.5029-.3006-.8047.0668-.0671.2004-.0671.3006-.0335.167.1676.2671.3353.4007.5364Zm5.3438 4.6942c.3674.4359.6346.9053.501 1.4753-.0668.1006-.0334.3018-.2004.3353-.0668.0335-.1336-.0335-.1336-.1006-.0334-.3018-.0334-.6371-.2004-.8718-.2004-.2012-.4342-.6035-.7681-.6035-.2338.0671-.4008.3353-.5344.5029 0 .0336-.0334.0336-.0668 0-.1336-.3353.1336-.6035.2338-.8717.2004-.2012.167-.7712.6011-.6036.3006.2012.3674.5365.5678.7377Zm-.7013 3.99c.0334.2012.0334.503-.167.6371-.2004.067-.4676.1006-.7014.067-.0668-.0335-.1336-.067-.1002-.1341.1002-.3018.4008-.637.7348-.7041.0668 0 .2004 0 .2338.1341ZM29.8249 39.1292c.8016.2012 1.67.2012 2.2712.8382.3339.4024.3673 1.1065.1002 1.5089-.4676.8047-1.4028 1.207-1.9706 1.9111-.5677.4695-.7681 1.2071-.6011 1.9448.2003.637.8349 1.0729 1.4695 1.1065 1.002.0335 1.7367-.4695 2.5383-.9389.8016-.57 1.5363-1.3076 2.4381-1.5423.6012-.2012 1.2691-.1006 1.8703-.3353.6346-.1342 1.1356-.6706 1.6365-1.1401.5678-.4694 1.2358-.7376 1.9706-.7041.6679.1006 1.0353-.5029 1.5029-.9053.7682-.7041 1.7701-.7712 2.6719-1.1735.6346-.2012 1.1356-.6706 1.7367-.9724.5678-.2347 1.336-.3017 1.9038-.067.3673.1676.7681.3353 1.1021.6035l2.7053 2.28c.0334.1006.1336.1677.2004.2012.7682.9388 1.5697 1.8441 2.2043 2.8836.2004.3688.3006.7376.4008 1.14.1336 1.5423.5344 2.8835 1.0353 4.2247.1336.2012.4008.3688.5344.57.4342.6035.7014 1.3747 1.4028 1.7771l.4007.2012c.0334.0335.0334.1005 0 .1341l-.0668.067c-.8349.1342-1.4695-.3688-1.9037-.9723-.2672-.5365-.6345-1.1065-1.2357-1.3412-.0334 0-.0668.0335-.0668.0335.0668.2012.2672.3353.334.503.2338.3688.4341.7711.5343 1.1735.1336.4359.6012.7376.9686.9724l.5344.2682c.0668.0335.1002.1341.0334.2012l-.0668.0335c-.9018.0335-1.7034-.2682-2.3379-.9388-.1336-.1677-.334-.3018-.5678-.3018-.4008.3688-.8016.7041-1.3359.7377-.5678-.1006-1.169-.1006-1.67.1005-.4676.1677-.9351.3689-1.4361.3689-.2338 0-.501-.1006-.6012-.3353 0-.3018-.2004-.6371-.0334-.9389l.334-.5029c0-.0671-.0334-.1341-.1002-.1341-.1336-.0335-.3674.2012-.4342-.0335.0334-.503.5344-.8383.8684-1.1736.0668-.4023.2338-.7712.5344-1.1065 0-.0335-.0334-.1006-.1002-.1006-.4342.0671-.8684.1677-1.336.1677-.3674.2012-.835.3353-1.2691.2012-.1002-.0671-.0668-.1677-.0334-.2347.4675-.6371.6345-1.4418.5009-2.213-.0334-.0335-.0333-.1006-.1001-.1006s-.0668.0671-.1002.1006c-.1002.7377-.334 1.3077-.7348 1.9447-.3006.3018-.7682.3018-1.169.4024-.1002.0335-.2004.1341-.2004.2347 0 .2682.167.4359.2672.6706l.8684 1.6094c.0334.4359-.167.8718-.2672 1.2741.0334.0671.1002.0336.167 0 .3006-.2682.501-.637.6346-1.0394.0334-.1676-.0334-.3688-.1002-.5029l-.9018-1.8106c.0668-.1006.2004-.1006.3006-.1341.2004 0 .4008.1005.6012.1676.2004.5365.4342 1.1065.8015 1.5759.0668.3018.167.7041-.0334.9388-.2003.4024-.4007.7377-.6679 1.1065-.2338.2347-.5678.2012-.9018.2347H47.76c-.8016.4359-1.6365.7041-2.5049.9724-.3674.1676-.8015.0335-1.1021-.2012-.3006-.2347-.4342-.57-.6346-.8718-.2338-.3017-.6012-.0335-.8684-.2012-.2338-.3688-.4676-.7376-.6679-1.14 0-.1006 0-.2011.1001-.2682.3006-.1006.6346-.1006.9686-.1341.3006-.0335.6346.0335.835.2347.4008.4694.5677 1.1065 1.1689 1.4082.4676.0336.8684-.1006 1.2692-.3017.2338-.1342.501-.3353.501-.6371-.0334-.6035-.4342-1.0729-.9352-1.4082-.501-.2683-1.0354-.6371-1.4028-1.1065-.2003-.2683-.2337-.57-.3339-.8383-.0334-.067-.167-.067-.2004-.0335-.2004.1677-.0334.4694-.0334.6706.0334.1341.1002.3018.0334.4024-.3006.2347-.7014.1005-1.0688.1341-.7348-.0336-1.4361-.3353-2.2043-.2683-.7348.0336-1.7367.5365-2.2711-.2011-.2672-.7042-.2004-1.5424-.0668-2.2465 0-.0671-.0668-.1342-.1336-.1342-.0668-.0335-.1336 0-.167.0671-.2004.7041-.2338 1.4753-.4008 2.213-.2672.637-.7347 1.3076-1.3693 1.6429-.5678.3018-1.2358.4024-1.9371.4694-1.2692.0336-2.4381.2683-3.2397 1.3748-.0668.1005-.167.2011-.1336.3352.0334.0336.1336.0671.167.0336.8684-.9724 1.9705-1.3747 3.2397-1.3077 1.2023 0 2.4047-.2012 3.1728-1.2406.2004-.2347.334-.4694.501-.7376.1336 0 .2338.1676.334.2347.0334.3688-.2672.6035-.4008.9053-.167.3353-.334.7376-.668.9388-.4007.1006-.7347.3688-1.1021.57-.3674.1677-.835.2347-1.2692.1341-.5343-.1006-1.2691-.2347-1.8035 0-.2672.1677-.501.4694-.7682.6371-.3673.1676-.7013.4694-1.1355.4359-.3006-.0671-.668-.2683-.9352 0-.334.3018-.4008.8382-.8349 1.0394-.501.2682-1.0354 0-1.5364-.0335.0668-.503.1336-.9724.4676-1.3412.2004-.0335.3674-.0671.5344-.2012.2004-.1676.334-.4023.4676-.6371.4341-.2682.9351-.4694 1.2023-.9388.2004-.4359.2004-.8382.5344-1.2406l.167-.067.9018-.0671c.3673-.1676.7013-.3353 1.0353-.6035.1002-.1006.1336-.2683.1002-.4359-.167-.4359-.3006-.7377-.4008-1.2071-.1002-.4694-.0334-.9388-.1002-1.4753-.0334-.0335-.0668-.1341-.1336-.1341-.6011.1341-1.1689.3018-1.8369.2012-.9018-.1006-1.8369-.7042-2.1709-1.6095-.3006-.7711-.2338-1.8776.334-2.5147.5344-.6706 1.2023-1.1735 1.8703-1.7435.1002-.0671.1002-.2012.1336-.3018 0-.1341-.1336-.2347-.2338-.3018-.4008-.1006-.8684.0336-1.2691-.1341-.7014-.2347-1.2358-.9053-1.336-1.6429-.0334-.3353.0334-.6036.2004-.8718.5344.4694.9352.8718 1.4361 1.0059ZM27.821 54.1169v.1006c-.167.4024-.2672.8718-.4008 1.3412-.3005-.0335-.5677-.1341-.8015-.2347-.0668-.067 0-.1341 0-.2012.3006-.2682.2004-.6035.2672-.9723.0334-.2012.2338-.3688.4342-.4694.2337.0335.3673.2682.5009.4358Zm1.4696-1.4082c-.167.3353-.4008.7377-.7682.9388-.1336.0336-.3006.0336-.4342-.0335-.0668-.0671-.2004-.1341-.2004-.2682.0334-.1342-.0334-.3018.1002-.3689.2672-.1676.5344-.3353.8016-.57.0668-.0335.2004-.067.2338 0 .1336.1006.2338.1677.2672.3018Zm16.7327-.1341c.0334.1341.2338.3018.1002.4359-.2672.2011-.5678.3353-.9352.3017-.2672-.2011-.2338-.57-.4676-.8382-.0668-.2012-.3673-.2012-.3005-.4024l.1001-.067c.3674 0 .7348 0 1.1022-.0671.3674-.0335.2672.4024.4008.6371Zm21.1079-5.4654c.2004.2683.3674.5365.501.8718.0334.0671 0 .1341-.0334.2012-.0334.0671-.1002.1341-.2004.0671-.2338-.0671-.2004-.4359-.501-.4024-.2004 0-.334.1676-.5009.2682-.3006.2683-.7014.5365-.7682.9389-.0668.1341-.0334.3688-.167.4359-.0668.0335-.167-.0336-.167-.1006-.0334-.5365.1336-1.0395.501-1.4083.3674-.3017.6346-.7376.9351-1.1065.2004-.0335.334.1006.4008.2347Zm.1336 4.4595c.0668.1341.2004.3018.1002.4694-.1336.1006-.3674.0335-.5344.0335-.2004-.1005-.2672-.3688-.2672-.6035 0-.0671 0-.1006.0668-.1676.2338 0 .4676.067.6346.2682Zm5.0098-10.2601c.1002.1341 0 .2682-.0668.3688-.4676.4359-1.0353.9053-1.3693 1.4418-.1336.1677-.2338.3688-.3006.57 0 .0335-.0334.0335-.0668.0335-.1002-.2682.0334-.57.1002-.8382.2338-.6371.7682-1.2406 1.3359-1.6765.0668-.0335.3006-.067.3674.1006Zm1.9037-2.1459c.3674.2347.501.7377.9352.8383.7348.1676 1.4695.3353 2.1375.6705.4676.2348.9018.5701 1.336.9389.4007.2012.9017.2012 1.3359.3353.6346.1676 1.1356.637 1.7033 1.0059.7348.57 1.7702.5029 2.6051.8717 1.336.4359 2.4047 1.4753 3.6405 2.0789.6346.3353 1.6031.4694 2.2377.1006.4342-.3018.7014-.7042.6012-1.2742-.2338-1.3747-1.7368-2.0788-2.4381-3.2188-.1336-.2682-.2338-.6371-.167-.9388.2672-.6706.9685-1.0395 1.5697-1.2742.4676-.2347 1.0688-.1676 1.5029-.4359.167-.1005.3006-.2347.4008-.3353.1002 0 .1002.1006.1336.1677.1336.8047 0 1.6429-.7014 2.1124-.2671.2011-.6011.2682-.9017.3353-.2672.1006-.8016-.1006-.7682.3688.0668.2347.2672.3688.4342.5365.9352.7711 1.8035 1.777 1.9037 2.9841.0334.9388-.6012 1.7435-1.4027 2.1459-.6012.2347-1.336.3353-1.9705.1677-.167-.0336-.4342-.2012-.5678.0335-.0334.2682.1336.4694.1336.7041.0668.4359.0668 1.0059-.0668 1.4418-.0668.3353-.4008.7376-.1002 1.0729.3006.4694.9017.3353 1.4027.4024.2672.0335.3674.3353.4342.5365.1002.2682.1002.57.2004.7711 0 .503.5678.7042.835 1.0395.334.3688.6345 1.0059 1.2023.9723.2004.4024.3006.7712.3674 1.2406l-.0668.0671c-.4676 0-1.1022.1341-1.4361-.2012-.4008-.2682-.5344-1.0059-1.1356-.8047-.2672.2012-.6346.2682-.9351.1341-.3006-.1006-.501-.3688-.7682-.5365-.8016-.6035-1.8703-.9053-2.9057-.6706-.6012.1677-1.0688-.2682-1.5363-.5364-.6346-.2683-.8016-.9389-.9352-1.5089l-.1002-.7041c0-.067.0668-.1341.1336-.1676h.1002c.3674.8382 1.0687 1.777 1.9705 2.0788.835.3353 1.6031-.1006 2.5049.0671.835.1005 1.5029.637 2.1375 1.14.0668 0 .1002-.0336.1336-.1006v-.0671c-.7682-.9723-1.8369-1.4753-3.0727-1.3747-1.0353.2012-2.0373-.1341-2.6384-1.0059-.334-.5029-.5678-1.0394-.668-1.6094-.1002-.6706-.2338-1.4083-.4676-2.0118-.0668-.0335-.1336-.1006-.2004-.0671l-.0668.1006c.1002.6371.3006 1.4083.0668 2.0789-.167.5365-.7014.7376-1.2023.7712-.501.0335-.9686-.0671-1.503-.0671-1.2023-.0335-2.2711.4359-3.5068.3353.1002-.3018.3005-.6035.2004-.9388-.0334-.0671-.1336-.0671-.2004-.0671-.2338.1341-.2004.4359-.334.6371-.2672.4359-.7682.8382-1.2692.9388-.3674.2682-.7013.6371-1.0019.9724-.1002.1006-.1002.3017-.0668.4358.2338.6036.9351.6706 1.4695.8383.2672.0335.501-.0671.6346-.3018.2338-.3688.2672-.9723.8015-1.0394h1.169c.1002.0335.167.1006.2338.2012l-.0334.1676c-.2672.3018-.3674.7377-.7014.9389-.2004.067-.4342 0-.5678.1676-.0668.4024-.1669.8383-.5677 1.0394-.3006.2683-.7348.1342-1.0688.0336-.6346-.2347-1.2691-.3689-1.9037-.57-.2672-.0671-.3674-.4024-.668-.4695-.2672-.067-.5678.1342-.8016-.1006-.1335-.3017-.2003-.5029-.2671-.8382-.1002-.2012-.167-.4359-.2004-.6706-.0334-.2012 0-.3353.0668-.5029l.8683-1.5759c.0668-.1006.1336-.2012.2338-.2347.2004.0335.4342.1341.6346.2347l-.0334.1006-.9018 1.3747c-.2004.4359 0 .9388.2004 1.3076.0334.0336.0668.1006.1002.0671-.0334-.2682-.0668-.5365 0-.8382.0668-.2683.2338-.503.3674-.7377l.7014-1.0394c.0668-.1677.0668-.4359-.0668-.6035-.3006-.3018-.7348-.4024-1.002-.8048-.5678-.7711-.6346-1.6764-.7014-2.6488 0-.0671-.0667-.1677-.1669-.2012-.0668-.0335-.1336.0671-.167.1006-.167.6371-.0668 1.4082.1002 1.9783.1002.4358.3005.8717.5009 1.2741.0334.067-.0334.1676-.1002.2012-.4675.0335-.9351 0-1.3693-.0671-.6012-.1006-1.0354-.57-1.5363-.9388-.0668-.0336-.1002.0335-.1336.067.1336.6706.8683 1.073 1.1021 1.6765.1336.503.6346.8718.7348 1.4083 0 .067-.0668.1676-.1336.2011-.167.0336-.334-.067-.501.0336-.0334.3017.167.6035.0334.8717-.167.2683-.4008.57-.7014.57-.6011-.2011-1.2023-.4694-1.8035-.637-.4342-.0335-.8683.0335-1.2691.067-.4008-.067-.668-.4358-.9686-.637-.1002-.0336-.2004-.0336-.2672.0335-.6679.6706-1.4027 1.4083-2.4047 1.3747-.0668 0-.1002-.067-.1002-.1341v-.0671c.4342-.4023.9686-.8047 1.169-1.3747.1336-.4694.5344-.8047.7013-1.2406.0334-.067-.0333-.1006-.1001-.1341l-.1002.0671c-.501.5029-.8684 1.0729-1.2358 1.6094-.3674.3688-.9018.6035-1.4695.4694-.0668-.0335-.0668-.1341-.0334-.2012 2.0707-1.2741 2.3045-3.5541 2.8723-5.633.4007-1.3747.7013-2.7829 1.7701-3.8894 1.6031-1.7771 3.607-2.8165 5.3772-4.3589.2671-.2347.5343-.4694.8683-.4694.8684-.067 1.5364.2683 2.1375.7712ZM93.249 53.9828c.167.2347.1002.6036.167.8718.0334.2012.3005.3688.1669.57l-.7347.2347c-.1336 0-.0668-.1676-.1336-.2347-.0668-.4359-.167-.7376-.3006-1.14-.0334-.2347.2004-.4024.3674-.5365.167-.067.3006.1341.4676.2347Zm-1.7034-1.5088c.2672.2347.6346.4024.835.7041.0334.1341-.0668.2683-.1336.3688-.1002.1006-.2338.1677-.4008.1677-.167 0-.3006-.1006-.4008-.2347-.167-.2683-.4008-.503-.4676-.7712.1002-.1676.334-.4359.5678-.2347Zm-16.0981-.2682c-.0334.3353-.1336.637-.2672.9388-.1002.2012-.4008.1341-.6012.1006-.2004-.0671-.5344-.1006-.5678-.4024-.0334-.2682.1002-.5365.2338-.7376.3006-.0336.668.0335.9686-.0336.1336 0 .2338.0336.2338.1342Z" fill="#E21B4D"/></svg>