<svg width="59" height="59" fill="none" xmlns="http://www.w3.org/2000/svg"><path fill-rule="evenodd" clip-rule="evenodd" d="m14.0574 45.5702-1.1437-9.2628c-3.02793-2.1531-5.36068-3.9252-8.16423-5.9661-1.32367-9.757 1.12128-15.0503 4.70987-20.0744C13.9228 4.59234 21.1.353271 29.6903.353271 38.281.442747 45.4806 4.77164 49.72 10.4462c3.9696 5.3831 6.1006 12.1566 4.5526 20.1642l-7.7379 5.697-1.1443 9.2628H33.1223c-.7626.6061-1.7941 1.1664-3.432 1.2115-1.6148-.0451-2.6242-.6054-3.454-1.2115H14.0574Z" fill="#CC2229"/><path fill-rule="evenodd" clip-rule="evenodd" d="M29.6907 32.7186c-.6505-8.6354-.8298-19.2894-1.3681-27.83461-.9196-.2244-2.2205-.15693-3.2971.02237-1.0765.3366-1.8616.6281-2.7812 1.144 1.6823 8.20904 3.6337 18.66094 5.2936 26.80284-2.2653-7.9175-5.2936-17.8312-7.5361-25.72629-1.0766.2244-2.1307.82977-2.8931 1.45787-.8074.62811-1.2785 1.09927-2.0188 2.22052 3.252 6.9532 7.1544 15.8126 10.4295 22.7207-3.791-6.2803-8.389-14.5564-12.202-20.7916-.7399.6504-1.3009 1.1216-2.0412 2.3775-.6281 1.0094-.942 2.1981-1.0766 3.3421 4.172 5.0916 9.151 11.1922 13.3453 16.2607-4.3733-4.2167-9.7567-9.6445-14.08523-13.8612-.42607.8522-.69521 1.5701-.82977 2.9829-.15694 1.368.1122 3.0052.4037 3.9923l8.4558 6.2803.8972 6.9755 9.3083.0671c.6728.7851.8968 1.1888 1.9961 1.2559 1.0538-.0671 1.6599-.7176 1.9291-1.2559h9.2851l.9417-6.9979 8.389-6.2355c.3135-1.0315.5152-2.6243.4037-3.9923-.1346-1.4803-.4037-2.2206-.7627-3.0056-4.3509 4.1943-9.7567 9.6225-14.0852 13.8388 4.2163-5.0241 9.1509-11.1475 13.3673-16.2834-.2241-1.1436-.4932-2.3104-1.1664-3.3195-.785-1.2562-1.2338-1.727-1.9514-2.3998-3.835 6.2128-8.5005 14.5567-12.2911 20.7916 3.3649-6.9304 7.1775-15.7899 10.475-22.6528-.7176-1.0993-1.2339-1.65995-1.9515-2.24295-.8521-.65047-1.9063-1.25585-2.9381-1.50262-2.3551 7.87237-5.2481 17.87587-7.5361 25.72587 1.592-8.1419 3.5886-18.5039 5.181-26.69021-.8071-.58337-1.5921-.87487-2.647-1.18874-1.2107-.2244-2.3995-.26914-3.3418-.1122-.6278 8.61235-.6508 19.24395-1.3009 27.83425Z" fill="#F6D330"/><path fill-rule="evenodd" clip-rule="evenodd" d="M3.98676 55.4394h4.35126c-.06711.9647.40406 1.1887.62846 1.346.24641.0895 2.06362.1789 2.96052.022.3589-.0671.6952-.2017.6952-1.3009 0-.4708-.1122-.9868-.6505-1.0993-1.9067-.1566-3.76825.0451-5.67457-.1346-1.90667-.4257-2.19782-.9196-2.31037-2.4222.13456-2.086.87486-2.6913 3.00558-2.7588 2.22004-.0671 4.44156-.0671 6.66166 0 2.2653 0 2.9605.8752 2.9605 2.7815h-3.9923c0-.9423-.1793-1.3009-.6505-1.346-.9708-.0671-1.945-.0671-2.91575 0-.35897 0-.82977.1797-.82977 1.0318 0 .8071.20167 1.0091.7403 1.0769 1.63722.0668 3.29712.0895 4.91192.201 2.6913.1573 2.7812 1.346 2.8706 2.6018.0448 1.7949-.6057 2.4223-1.0765 2.7145-.4484.2017-2.6243.4488-3.0503.4488H8.31601c-.9647 0-2.17581-.1122-3.22999-.4264-.98707-.2688-1.09926-1.5921-1.09926-2.7361Zm40.88874 3.2072h3.8126V49.137h-3.8126v9.5096Zm6.3694 0h3.7683V49.137h-3.7683v9.5096Zm-8.59-4.9794c-.0694-.2974-.1595-.5896-.2698-.8745-.6505-1.0541-2.893-1.0541-5.0685-1.0992-1.6372 0-4.0818.0451-4.7997.7399-.2918.3142-.4488.7627-.5383 1.2338-.1122.561-.0901 1.1437-.0901 1.4132 0 .4932.045 2.3995.9647 2.893.8521.561 3.4313.6285 4.418.6285 1.0541 0 3.9702-.1122 4.3967-.6061.7619-.2691.9416-1.2108 1.0985-1.9507h-3.7455c0 .7399-.5834 1.1887-1.7497 1.1206-1.0542.0678-1.6596-.179-1.6596-1.5019l7.1545.022c.0003-.6501.0234-1.3457-.1112-2.0186Zm-3.634.6505h-3.4093c0-.2691.0451-.4939.1122-.6505.2461-.6053.8745-.6277 1.547-.6728 1.0318 0 1.4806.2468 1.6603.6728.0898.1797.1122.4038.0898.6505ZM18.992 58.6466h3.7231v-4.0374c.0898-.5603.2244-1.0091 1.5925-1.0091 1.3005-.022 1.6595.3363 1.6595 1.0091v4.0374h3.7232v-4.0374c0-1.3233-.022-2.0409-.8745-2.4215-.7627-.4939-1.862-.4264-2.8934-.4264-1.0766 0-2.2877.1346-3.2073.5834v-3.2073H18.992v9.5092Z" fill="#CC2229"/></svg>