<svg width="40" height="40" viewBox="0 0 40 40" fill="none" xmlns="http://www.w3.org/2000/svg">
<path d="M20 13.7496C20 10.3121 22.8906 7.45272 26.3281 7.49959C27.5319 7.51349 28.7061 7.87478 29.7095 8.54002C30.713 9.20527 31.5029 10.1462 31.9844 11.2496H37.5L32.4531 16.2965C32.1274 21.3661 29.8832 26.1214 26.1768 29.5956C22.4705 33.0698 17.5801 35.0021 12.5 34.9996C7.49999 34.9996 6.24999 33.1246 6.24999 33.1246C6.24999 33.1246 11.25 31.2496 13.75 27.4996C13.75 27.4996 3.74999 22.4996 6.24999 8.74959C6.24999 8.74959 12.5 14.9996 20 16.2496V13.7496Z" fill="black" stroke="black" stroke-width="2" stroke-linecap="round" stroke-linejoin="round"/>
</svg>
