<svg width="40" height="40" viewBox="0 0 40 40" fill="none" xmlns="http://www.w3.org/2000/svg">
<path d="M3.75 20.0001C3.75 24.6563 4.23437 27.3751 4.59375 28.7813C4.69284 29.1629 4.88022 29.5158 5.14078 29.8117C5.40133 30.1075 5.72776 30.338 6.09375 30.4845C11.3281 32.4845 20 32.4376 20 32.4376C20 32.4376 28.6719 32.4845 33.9062 30.4845C34.2722 30.338 34.5987 30.1075 34.8592 29.8117C35.1198 29.5158 35.3072 29.1629 35.4063 28.7813C35.7656 27.3751 36.25 24.6563 36.25 20.0001C36.25 15.3438 35.7656 12.6251 35.4063 11.2188C35.3072 10.8373 35.1198 10.4844 34.8592 10.1885C34.5987 9.89268 34.2722 9.66222 33.9062 9.51572C28.6719 7.51572 20 7.56259 20 7.56259C20 7.56259 11.3281 7.51572 6.09375 9.51572C5.72776 9.66222 5.40133 9.89268 5.14078 10.1885C4.88022 10.4844 4.69284 10.8373 4.59375 11.2188C4.23437 12.6251 3.75 15.3438 3.75 20.0001Z" fill="black" stroke="black" stroke-width="2" stroke-linecap="round" stroke-linejoin="round"/>
<path d="M25 20L17.5 15V25L25 20Z" fill="white" stroke="white" stroke-width="2" stroke-linecap="round" stroke-linejoin="round"/>
</svg>
